<?xml version="1.0" encoding="UTF-8"?>
<svg width="36px" height="36px" viewBox="0 0 36 36" version="1.1" xmlns="http://www.w3.org/2000/svg" xmlns:xlink="http://www.w3.org/1999/xlink">
    <!-- Generator: Sketch 57 (83077) - https://sketch.com -->
    <title>Group 4 Copy</title>
    <desc>Created with Sketch.</desc>
    <g stroke="none" stroke-width="1" fill="none" fill-rule="evenodd">
        <g transform="translate(-527.000000, -593.000000)">
            <g transform="translate(110.000000, 189.000000)">
                <g transform="translate(417.000000, 404.000000)">
                    <g id="Group-4-Copy">
                        <path d="M18.0001206,-1.27897692e-13 C27.9413481,-1.27897692e-13 36,8.05881265 36,17.9999196 C36,27.9411472 27.9411874,36 18.0001206,36 C8.05901358,36 0,27.9411472 0,17.9999196 C0,8.05885284 8.05901354,-1.27897692e-13 18.0001206,-1.27897692e-13 Z M22.0381688,15.1471242 C18.6313061,15.1471242 15.9364026,17.4860655 15.9364026,20.3844158 C15.9364026,23.2827312 18.631306,25.6217074 22.0381688,25.6217074 C22.7753847,25.6217074 23.487344,25.3927949 24.2245947,25.2404188 L24.2245947,25.2404188 L26.1567818,26.333597 L25.6484435,24.5029939 C27.072153,23.460573 28.1653659,22.0115372 28.1653659,20.3844158 C28.1653659,17.4861004 25.2670505,15.1471242 22.0381688,15.1471242 Z M15.0465318,9.7826087 C11.0803995,9.7826087 7.82608696,12.4266157 7.82608696,15.8842008 C7.82608696,17.7569048 8.80313255,19.3039269 10.4678664,20.5471268 L10.6991109,20.714773 L9.96158149,22.9013034 L12.5294004,21.6045043 C13.4193408,21.8589869 14.1057995,22.0115372 15.046497,22.0115372 C15.249909,22.0115372 15.478926,22.0115372 15.6822333,21.9862805 C15.5551488,21.4775939 15.4789607,20.994582 15.4789607,20.4606038 C15.4789607,17.3335153 18.1482592,14.7402655 21.6060185,14.7402655 C21.8092911,14.7402655 22.0381687,14.765557 22.292512,14.816767 C21.6823807,11.8672415 18.5549786,9.7826087 15.0465318,9.7826087 Z M19.3431259,18.7826556 C19.3431259,19.1130476 19.6989488,19.4434048 20.0548762,19.4434048 C20.5889937,19.4434048 20.9702822,19.1130127 20.9702822,18.7826556 C20.9702474,18.3757968 20.5889937,18.0453003 20.0548762,18.0453003 C19.6990533,18.0453003 19.3431259,18.3756227 19.3431259,18.7826556 Z M18.631306,13.7230664 C18.631306,13.1638316 18.2754832,12.8333002 17.716109,12.8333002 C17.1821309,12.8333002 16.6736184,13.1638316 16.6736184,13.7230664 C16.6736184,14.2573232 17.1821309,14.6130067 17.716109,14.6130067 C18.2754832,14.6130067 18.631306,14.2571839 18.631306,13.7230664 Z M11.588912,13.7230664 C11.588912,14.2571839 12.1481468,14.6131809 12.6820901,14.6131809 C13.1906025,14.6131809 13.5972871,14.2571839 13.5972871,13.7230664 C13.5972871,13.1638316 13.1906025,12.8333002 12.6820901,12.8333002 C12.1481119,12.8333002 11.588912,13.1638316 11.588912,13.7230664 Z M23.3347588,18.7826556 C23.3347588,19.1130476 23.6652902,19.4434048 24.0465787,19.4434048 C24.5550564,19.4434048 24.9364842,19.1130127 24.9364842,18.7826556 C24.9364842,18.3757968 24.5550564,18.0453003 24.0465787,18.0453003 C23.6652902,18.0453003 23.3347588,18.3756227 23.3347588,18.7826556 Z" id="形状结合" fill="#0FCA19" fill-rule="nonzero"></path>
                        <g transform="translate(7.826087, 9.782609)"></g>
                    </g>
                </g>
            </g>
        </g>
    </g>
</svg>